<?xml version="1.0" encoding="UTF-8" standalone="no"?>
<!DOCTYPE svg PUBLIC "-//W3C//DTD SVG 1.1//EN" "http://www.w3.org/Graphics/SVG/1.1/DTD/svg11.dtd">
<svg width="100%" height="100%" viewBox="0 0 1083 200" version="1.1" xmlns="http://www.w3.org/2000/svg" xmlns:xlink="http://www.w3.org/1999/xlink" xml:space="preserve" xmlns:serif="http://www.serif.com/" style="fill-rule:evenodd;clip-rule:evenodd;stroke-linecap:round;stroke-linejoin:round;stroke-miterlimit:1.5;">
    <g transform="matrix(4.16538,0,0,4.16667,-1857.68,-986.742)">
        <g transform="matrix(1.0979,0,0,1.25829,470.369,330.69)">
            <rect x="-22.214" y="-74.603" width="236.816" height="38.147" style="fill:rgb(178,200,224);"/>
        </g>
        <g transform="matrix(0.521684,0,0,0.521684,422.483,220.652)">
            <path d="M58.475,116.163C61.783,100.159 69.527,87.728 83.835,78.057" style="fill:none;stroke:white;stroke-width:5.75px;"/>
            <path d="M64.736,85.069C64.736,85.069 62.534,72.635 69.345,64.186C77.908,53.563 88.748,55.395 104.611,52.819C118.819,50.511 127.236,37.944 127.236,37.944C127.236,37.944 129.379,46.447 128.861,59.069C127.957,81.082 115.562,91.527 112.986,93.069C96.418,102.982 68.754,92.581 68.754,92.581C68.754,92.581 70.792,98.204 77.305,102.255C86.035,107.684 111.331,116.484 125.311,97.019C138.19,79.086 139.236,63.569 139.236,63.569C139.236,63.569 133.439,69.75 122.902,69.643C106.316,69.475 93.396,63.948 88.986,63.694C69.194,62.552 64.736,85.069 64.736,85.069Z" style="fill:none;stroke:white;stroke-width:5.75px;"/>
        </g>
        <g transform="matrix(1.03164,0,0,1,493.034,120.109)">
            <path d="M9.258,147.181L9.258,125.707L12.173,125.707L23.453,142.567L23.453,125.707L26.177,125.707L26.177,147.181L23.262,147.181L11.983,130.306L11.983,147.181L9.258,147.181Z" style="fill:rgb(168,230,207);fill-rule:nonzero;"/>
            <path d="M40.811,147.181L40.811,144.896C39.6,146.654 37.955,147.533 35.875,147.533C34.957,147.533 34.097,147.357 33.296,147.006C32.505,146.654 31.915,146.215 31.524,145.687C31.143,145.15 30.875,144.496 30.718,143.724C30.611,143.207 30.557,142.386 30.557,141.263L30.557,131.625L33.194,131.625L33.194,140.253C33.194,141.63 33.248,142.557 33.355,143.036C33.521,143.729 33.873,144.276 34.41,144.676C34.947,145.067 35.611,145.262 36.402,145.262C37.193,145.262 37.935,145.062 38.628,144.662C39.322,144.252 39.81,143.7 40.093,143.007C40.386,142.303 40.533,141.288 40.533,139.96L40.533,131.625L43.169,131.625L43.169,147.181L40.811,147.181Z" style="fill:rgb(168,230,207);fill-rule:nonzero;"/>
            <path d="M53.057,144.823L53.438,147.152C52.696,147.308 52.032,147.386 51.446,147.386C50.489,147.386 49.747,147.235 49.219,146.932C48.692,146.63 48.321,146.234 48.106,145.746C47.891,145.248 47.784,144.208 47.784,142.626L47.784,133.675L45.85,133.675L45.85,131.625L47.784,131.625L47.784,127.772L50.406,126.19L50.406,131.625L53.057,131.625L53.057,133.675L50.406,133.675L50.406,142.772C50.406,143.524 50.45,144.008 50.538,144.222C50.635,144.437 50.787,144.608 50.992,144.735C51.207,144.862 51.509,144.925 51.9,144.925C52.193,144.925 52.579,144.891 53.057,144.823Z" style="fill:rgb(168,230,207);fill-rule:nonzero;"/>
            <path d="M55.606,147.181L55.606,131.625L57.979,131.625L57.979,133.983C58.584,132.88 59.141,132.152 59.649,131.8C60.167,131.449 60.733,131.273 61.348,131.273C62.237,131.273 63.14,131.556 64.058,132.123L63.15,134.569C62.505,134.188 61.861,133.998 61.216,133.998C60.64,133.998 60.123,134.174 59.664,134.525C59.205,134.867 58.877,135.345 58.682,135.961C58.389,136.898 58.243,137.924 58.243,139.037L58.243,147.181L55.606,147.181Z" style="fill:rgb(168,230,207);fill-rule:nonzero;"/>
            <path d="M65.64,128.739L65.64,125.707L68.277,125.707L68.277,128.739L65.64,128.739ZM65.64,147.181L65.64,131.625L68.277,131.625L68.277,147.181L65.64,147.181Z" style="fill:rgb(168,230,207);fill-rule:nonzero;"/>
            <path d="M72.51,147.181L72.51,125.707L80.567,125.707C82.208,125.707 83.521,125.926 84.507,126.366C85.503,126.796 86.28,127.465 86.836,128.373C87.403,129.271 87.686,130.214 87.686,131.2C87.686,132.118 87.437,132.982 86.939,133.793C86.441,134.603 85.689,135.258 84.683,135.756C85.982,136.136 86.978,136.786 87.671,137.704C88.375,138.622 88.726,139.706 88.726,140.956C88.726,141.962 88.511,142.899 88.082,143.768C87.662,144.628 87.139,145.292 86.514,145.76C85.889,146.229 85.103,146.586 84.156,146.83C83.218,147.064 82.066,147.181 80.699,147.181L72.51,147.181ZM75.352,134.73L79.996,134.73C81.255,134.73 82.159,134.647 82.706,134.481C83.428,134.266 83.97,133.91 84.332,133.412C84.703,132.914 84.888,132.289 84.888,131.537C84.888,130.824 84.717,130.199 84.376,129.662C84.034,129.115 83.545,128.744 82.911,128.549C82.276,128.343 81.187,128.241 79.644,128.241L75.352,128.241L75.352,134.73ZM75.352,144.647L80.699,144.647C81.617,144.647 82.261,144.613 82.632,144.545C83.287,144.427 83.834,144.232 84.273,143.959C84.712,143.685 85.074,143.29 85.357,142.772C85.64,142.245 85.782,141.639 85.782,140.956C85.782,140.155 85.577,139.462 85.167,138.876C84.756,138.28 84.185,137.865 83.453,137.631C82.73,137.386 81.685,137.264 80.318,137.264L75.352,137.264L75.352,144.647Z" style="fill:rgb(168,230,207);fill-rule:nonzero;"/>
            <path d="M92.315,128.739L92.315,125.707L94.952,125.707L94.952,128.739L92.315,128.739ZM92.315,147.181L92.315,131.625L94.952,131.625L94.952,147.181L92.315,147.181Z" style="fill:rgb(168,230,207);fill-rule:nonzero;"/>
            <path d="M109.615,142.172L112.339,142.509C111.91,144.1 111.114,145.336 109.952,146.215C108.79,147.093 107.305,147.533 105.499,147.533C103.223,147.533 101.417,146.835 100.079,145.438C98.751,144.032 98.086,142.064 98.086,139.535C98.086,136.918 98.76,134.886 100.108,133.441C101.456,131.996 103.204,131.273 105.352,131.273C107.432,131.273 109.131,131.981 110.45,133.397C111.768,134.813 112.427,136.805 112.427,139.374C112.427,139.53 112.422,139.764 112.413,140.077L100.811,140.077C100.909,141.786 101.392,143.094 102.261,144.003C103.13,144.911 104.214,145.365 105.513,145.365C106.48,145.365 107.305,145.111 107.989,144.603C108.672,144.095 109.214,143.285 109.615,142.172ZM100.958,137.909L109.644,137.909C109.527,136.6 109.195,135.619 108.648,134.965C107.808,133.949 106.719,133.441 105.381,133.441C104.17,133.441 103.15,133.846 102.32,134.657C101.5,135.467 101.045,136.551 100.958,137.909Z" style="fill:rgb(168,230,207);fill-rule:nonzero;"/>
            <path d="M115.65,147.181L115.65,131.625L118.023,131.625L118.023,133.837C119.166,132.128 120.816,131.273 122.974,131.273C123.912,131.273 124.771,131.444 125.552,131.786C126.343,132.118 126.934,132.557 127.325,133.104C127.715,133.651 127.989,134.3 128.145,135.052C128.243,135.541 128.292,136.395 128.292,137.616L128.292,147.181L125.655,147.181L125.655,137.718C125.655,136.644 125.552,135.843 125.347,135.316C125.142,134.779 124.776,134.354 124.249,134.042C123.731,133.719 123.121,133.558 122.417,133.558C121.294,133.558 120.323,133.915 119.502,134.628C118.692,135.341 118.287,136.693 118.287,138.685L118.287,147.181L115.65,147.181Z" style="fill:rgb(168,230,207);fill-rule:nonzero;"/>
            <path d="M142.984,142.172L145.709,142.509C145.279,144.1 144.483,145.336 143.321,146.215C142.159,147.093 140.674,147.533 138.868,147.533C136.592,147.533 134.786,146.835 133.448,145.438C132.12,144.032 131.456,142.064 131.456,139.535C131.456,136.918 132.129,134.886 133.477,133.441C134.825,131.996 136.573,131.273 138.721,131.273C140.801,131.273 142.501,131.981 143.819,133.397C145.137,134.813 145.796,136.805 145.796,139.374C145.796,139.53 145.792,139.764 145.782,140.077L134.18,140.077C134.278,141.786 134.761,143.094 135.63,144.003C136.5,144.911 137.584,145.365 138.882,145.365C139.849,145.365 140.674,145.111 141.358,144.603C142.042,144.095 142.584,143.285 142.984,142.172ZM134.327,137.909L143.013,137.909C142.896,136.6 142.564,135.619 142.017,134.965C141.177,133.949 140.088,133.441 138.751,133.441C137.54,133.441 136.519,133.846 135.689,134.657C134.869,135.467 134.415,136.551 134.327,137.909Z" style="fill:rgb(168,230,207);fill-rule:nonzero;"/>
            <path d="M147.964,142.538L150.572,142.128C150.718,143.173 151.124,143.973 151.788,144.53C152.461,145.087 153.399,145.365 154.6,145.365C155.811,145.365 156.709,145.121 157.295,144.633C157.881,144.134 158.174,143.553 158.174,142.889C158.174,142.294 157.916,141.825 157.398,141.483C157.037,141.249 156.138,140.951 154.703,140.59C152.769,140.101 151.426,139.681 150.674,139.33C149.932,138.968 149.366,138.475 148.975,137.85C148.594,137.216 148.404,136.517 148.404,135.756C148.404,135.062 148.56,134.423 148.873,133.837C149.195,133.241 149.629,132.748 150.176,132.357C150.586,132.054 151.143,131.8 151.846,131.595C152.559,131.381 153.321,131.273 154.131,131.273C155.352,131.273 156.421,131.449 157.339,131.8C158.267,132.152 158.951,132.631 159.39,133.236C159.83,133.832 160.132,134.633 160.298,135.638L157.72,135.99C157.603,135.189 157.261,134.564 156.695,134.115C156.138,133.666 155.347,133.441 154.322,133.441C153.111,133.441 152.247,133.641 151.729,134.042C151.211,134.442 150.953,134.911 150.953,135.448C150.953,135.79 151.06,136.097 151.275,136.371C151.49,136.654 151.827,136.888 152.286,137.074C152.549,137.172 153.326,137.396 154.615,137.748C156.48,138.246 157.779,138.656 158.511,138.978C159.253,139.291 159.834,139.75 160.254,140.355C160.674,140.961 160.884,141.713 160.884,142.611C160.884,143.49 160.626,144.32 160.108,145.101C159.6,145.873 158.863,146.473 157.896,146.903C156.929,147.323 155.835,147.533 154.615,147.533C152.593,147.533 151.05,147.113 149.986,146.273C148.931,145.433 148.257,144.188 147.964,142.538Z" style="fill:rgb(168,230,207);fill-rule:nonzero;"/>
            <path d="M169.776,144.823L170.157,147.152C169.415,147.308 168.751,147.386 168.165,147.386C167.208,147.386 166.465,147.235 165.938,146.932C165.411,146.63 165.04,146.234 164.825,145.746C164.61,145.248 164.502,144.208 164.502,142.626L164.502,133.675L162.569,133.675L162.569,131.625L164.502,131.625L164.502,127.772L167.125,126.19L167.125,131.625L169.776,131.625L169.776,133.675L167.125,133.675L167.125,142.772C167.125,143.524 167.168,144.008 167.256,144.222C167.354,144.437 167.505,144.608 167.71,144.735C167.925,144.862 168.228,144.925 168.619,144.925C168.912,144.925 169.297,144.891 169.776,144.823Z" style="fill:rgb(168,230,207);fill-rule:nonzero;"/>
            <path d="M182.505,145.262C181.529,146.092 180.586,146.678 179.678,147.02C178.78,147.362 177.813,147.533 176.778,147.533C175.069,147.533 173.755,147.118 172.837,146.288C171.919,145.448 171.46,144.379 171.46,143.08C171.46,142.318 171.631,141.625 171.973,141C172.325,140.365 172.779,139.857 173.335,139.476C173.902,139.095 174.537,138.807 175.24,138.612C175.757,138.475 176.539,138.343 177.584,138.217C179.712,137.963 181.28,137.66 182.286,137.308C182.295,136.947 182.3,136.717 182.3,136.62C182.3,135.546 182.051,134.789 181.553,134.349C180.879,133.754 179.878,133.456 178.55,133.456C177.31,133.456 176.392,133.675 175.796,134.115C175.21,134.545 174.776,135.311 174.493,136.415L171.915,136.063C172.149,134.96 172.535,134.071 173.072,133.397C173.609,132.714 174.385,132.191 175.401,131.83C176.417,131.459 177.593,131.273 178.931,131.273C180.259,131.273 181.338,131.429 182.168,131.742C182.999,132.054 183.609,132.45 184,132.928C184.39,133.397 184.664,133.993 184.82,134.716C184.908,135.165 184.952,135.975 184.952,137.147L184.952,140.663C184.952,143.114 185.005,144.667 185.113,145.321C185.23,145.966 185.455,146.586 185.787,147.181L183.033,147.181C182.759,146.634 182.584,145.995 182.505,145.262ZM182.286,139.374C181.329,139.764 179.893,140.096 177.979,140.37C176.895,140.526 176.128,140.702 175.679,140.897C175.23,141.092 174.883,141.381 174.639,141.761C174.395,142.133 174.273,142.548 174.273,143.007C174.273,143.71 174.537,144.296 175.064,144.764C175.601,145.233 176.382,145.467 177.408,145.467C178.423,145.467 179.327,145.248 180.118,144.808C180.909,144.359 181.49,143.749 181.861,142.977C182.144,142.382 182.286,141.503 182.286,140.341L182.286,139.374Z" style="fill:rgb(168,230,207);fill-rule:nonzero;"/>
            <path d="M189.009,147.181L189.009,131.625L191.382,131.625L191.382,133.983C191.988,132.88 192.544,132.152 193.052,131.8C193.57,131.449 194.136,131.273 194.751,131.273C195.64,131.273 196.543,131.556 197.461,132.123L196.553,134.569C195.909,134.188 195.264,133.998 194.62,133.998C194.043,133.998 193.526,134.174 193.067,134.525C192.608,134.867 192.281,135.345 192.085,135.961C191.792,136.898 191.646,137.924 191.646,139.037L191.646,147.181L189.009,147.181Z" style="fill:rgb(168,230,207);fill-rule:nonzero;"/>
        </g>
        <g transform="matrix(1.34833,0,0,1.07439,487.278,101.456)">
            <path d="M11.353,163.539L11.353,156.876L13.867,156.876C14.309,156.876 14.647,156.897 14.88,156.94C15.207,156.994 15.481,157.099 15.703,157.253C15.924,157.405 16.101,157.618 16.234,157.894C16.371,158.17 16.439,158.473 16.439,158.803C16.439,159.37 16.259,159.85 15.898,160.244C15.538,160.635 14.886,160.83 13.944,160.83L12.235,160.83L12.235,163.539L11.353,163.539ZM12.235,160.044L13.957,160.044C14.527,160.044 14.932,159.938 15.171,159.726C15.41,159.514 15.53,159.215 15.53,158.83C15.53,158.552 15.459,158.314 15.316,158.117C15.177,157.917 14.992,157.785 14.762,157.721C14.613,157.682 14.339,157.662 13.939,157.662L12.235,157.662L12.235,160.044Z" style="fill:white;fill-rule:nonzero;"/>
            <path d="M16.139,163.539L18.698,156.876L19.647,156.876L22.374,163.539L21.37,163.539L20.593,161.521L17.807,161.521L17.075,163.539L16.139,163.539ZM18.061,160.803L20.32,160.803L19.625,158.958C19.413,158.397 19.255,157.937 19.152,157.576C19.067,158.003 18.948,158.427 18.793,158.849L18.061,160.803Z" style="fill:white;fill-rule:nonzero;"/>
            <path d="M23.092,163.539L23.092,156.876L26.046,156.876C26.64,156.876 27.092,156.937 27.401,157.058C27.71,157.176 27.957,157.387 28.142,157.69C28.326,157.993 28.419,158.327 28.419,158.694C28.419,159.167 28.266,159.565 27.96,159.889C27.654,160.214 27.181,160.42 26.542,160.507C26.775,160.62 26.952,160.73 27.074,160.839C27.331,161.076 27.575,161.371 27.805,161.725L28.964,163.539L27.855,163.539L26.974,162.153C26.716,161.753 26.504,161.447 26.337,161.235C26.171,161.022 26.021,160.874 25.887,160.789C25.757,160.704 25.624,160.645 25.487,160.612C25.387,160.591 25.224,160.58 24.997,160.58L23.974,160.58L23.974,163.539L23.092,163.539ZM23.974,159.817L25.869,159.817C26.272,159.817 26.587,159.776 26.815,159.694C27.042,159.609 27.214,159.476 27.333,159.294C27.451,159.109 27.51,158.909 27.51,158.694C27.51,158.379 27.395,158.12 27.164,157.917C26.937,157.714 26.577,157.612 26.083,157.612L23.974,157.612L23.974,159.817Z" style="fill:white;fill-rule:nonzero;"/>
            <path d="M29.069,163.539L31.627,156.876L32.577,156.876L35.304,163.539L34.3,163.539L33.523,161.521L30.737,161.521L30.005,163.539L29.069,163.539ZM30.991,160.803L33.25,160.803L32.555,158.958C32.342,158.397 32.185,157.937 32.082,157.576C31.997,158.003 31.877,158.427 31.723,158.849L30.991,160.803Z" style="fill:white;fill-rule:nonzero;"/>
            <path d="M42.453,156.876L43.335,156.876L43.335,160.726C43.335,161.395 43.259,161.927 43.107,162.321C42.956,162.715 42.682,163.036 42.285,163.284C41.891,163.53 41.373,163.652 40.731,163.652C40.106,163.652 39.596,163.545 39.199,163.33C38.802,163.115 38.519,162.804 38.349,162.398C38.179,161.989 38.095,161.432 38.095,160.726L38.095,156.876L38.976,156.876L38.976,160.721C38.976,161.3 39.029,161.727 39.135,162.003C39.244,162.275 39.429,162.486 39.69,162.634C39.953,162.783 40.275,162.857 40.653,162.857C41.302,162.857 41.764,162.71 42.039,162.416C42.315,162.122 42.453,161.557 42.453,160.721L42.453,156.876Z" style="fill:white;fill-rule:nonzero;"/>
            <path d="M44.794,163.539L44.794,156.876L45.698,156.876L49.197,162.107L49.197,156.876L50.043,156.876L50.043,163.539L49.138,163.539L45.639,158.303L45.639,163.539L44.794,163.539Z" style="fill:white;fill-rule:nonzero;"/>
            <path d="M58.864,161.203L59.746,161.425C59.561,162.15 59.228,162.703 58.746,163.084C58.267,163.463 57.681,163.652 56.987,163.652C56.269,163.652 55.684,163.507 55.233,163.216C54.784,162.922 54.442,162.498 54.206,161.944C53.972,161.389 53.856,160.794 53.856,160.157C53.856,159.464 53.988,158.859 54.251,158.344C54.518,157.826 54.895,157.434 55.383,157.167C55.874,156.897 56.413,156.763 57.001,156.763C57.667,156.763 58.228,156.932 58.682,157.272C59.137,157.611 59.453,158.088 59.632,158.703L58.764,158.908C58.61,158.423 58.385,158.07 58.091,157.849C57.798,157.628 57.428,157.517 56.983,157.517C56.47,157.517 56.042,157.64 55.696,157.885C55.354,158.131 55.113,158.461 54.974,158.876C54.834,159.288 54.765,159.714 54.765,160.153C54.765,160.719 54.846,161.215 55.01,161.639C55.177,162.06 55.434,162.375 55.783,162.584C56.131,162.793 56.508,162.898 56.914,162.898C57.408,162.898 57.826,162.756 58.169,162.471C58.511,162.186 58.743,161.763 58.864,161.203Z" style="fill:white;fill-rule:nonzero;"/>
            <path d="M60.1,163.539L62.659,156.876L63.609,156.876L66.336,163.539L65.331,163.539L64.554,161.521L61.768,161.521L61.036,163.539L60.1,163.539ZM62.023,160.803L64.281,160.803L63.586,158.958C63.374,158.397 63.216,157.937 63.113,157.576C63.029,158.003 62.909,158.427 62.754,158.849L62.023,160.803Z" style="fill:white;fill-rule:nonzero;"/>
            <path d="M67.013,163.539L67.013,156.876L68.34,156.876L69.917,161.594C70.062,162.033 70.168,162.362 70.235,162.58C70.311,162.337 70.429,161.981 70.589,161.512L72.185,156.876L73.371,156.876L73.371,163.539L72.521,163.539L72.521,157.962L70.585,163.539L69.79,163.539L67.863,157.867L67.863,163.539L67.013,163.539Z" style="fill:white;fill-rule:nonzero;"/>
            <rect x="74.943" y="156.876" width="0.882" height="6.663" style="fill:white;"/>
            <path d="M77.37,163.539L77.37,156.876L78.275,156.876L81.774,162.107L81.774,156.876L82.619,156.876L82.619,163.539L81.715,163.539L78.216,158.303L78.216,163.539L77.37,163.539Z" style="fill:white;fill-rule:nonzero;"/>
            <path d="M83.833,160.294C83.833,159.188 84.13,158.323 84.724,157.699C85.317,157.072 86.084,156.758 87.023,156.758C87.638,156.758 88.193,156.905 88.687,157.199C89.18,157.493 89.556,157.903 89.814,158.43C90.074,158.955 90.205,159.55 90.205,160.217C90.205,160.892 90.068,161.497 89.796,162.03C89.523,162.563 89.137,162.968 88.637,163.243C88.137,163.516 87.597,163.652 87.019,163.652C86.392,163.652 85.831,163.501 85.337,163.198C84.843,162.895 84.469,162.481 84.215,161.957C83.96,161.433 83.833,160.879 83.833,160.294ZM84.742,160.307C84.742,161.11 84.957,161.744 85.387,162.207C85.82,162.668 86.363,162.898 87.014,162.898C87.678,162.898 88.223,162.665 88.65,162.198C89.081,161.731 89.296,161.069 89.296,160.212C89.296,159.67 89.203,159.197 89.018,158.794C88.837,158.388 88.568,158.074 88.214,157.853C87.863,157.629 87.467,157.517 87.028,157.517C86.404,157.517 85.866,157.732 85.414,158.162C84.966,158.59 84.742,159.305 84.742,160.307Z" style="fill:white;fill-rule:nonzero;"/>
            <path d="M93.627,161.398L94.458,161.325C94.498,161.659 94.589,161.933 94.731,162.148C94.877,162.36 95.101,162.533 95.404,162.666C95.707,162.796 96.048,162.862 96.426,162.862C96.763,162.862 97.06,162.812 97.317,162.712C97.575,162.612 97.766,162.475 97.89,162.303C98.017,162.127 98.081,161.936 98.081,161.73C98.081,161.521 98.02,161.339 97.899,161.185C97.778,161.027 97.578,160.895 97.299,160.789C97.12,160.719 96.725,160.612 96.113,160.467C95.501,160.318 95.072,160.179 94.827,160.048C94.508,159.882 94.271,159.676 94.113,159.43C93.959,159.182 93.881,158.905 93.881,158.599C93.881,158.262 93.977,157.949 94.168,157.658C94.358,157.364 94.637,157.141 95.004,156.99C95.37,156.838 95.778,156.763 96.226,156.763C96.72,156.763 97.155,156.843 97.531,157.003C97.909,157.161 98.2,157.394 98.403,157.703C98.606,158.012 98.715,158.362 98.73,158.753L97.885,158.817C97.84,158.396 97.685,158.077 97.422,157.862C97.161,157.647 96.775,157.54 96.263,157.54C95.729,157.54 95.34,157.638 95.095,157.835C94.852,158.029 94.731,158.264 94.731,158.54C94.731,158.779 94.817,158.976 94.99,159.13C95.16,159.285 95.602,159.444 96.317,159.608C97.035,159.768 97.528,159.909 97.794,160.03C98.182,160.209 98.468,160.436 98.653,160.712C98.838,160.985 98.93,161.3 98.93,161.657C98.93,162.012 98.829,162.347 98.626,162.662C98.423,162.974 98.131,163.218 97.749,163.393C97.37,163.566 96.943,163.652 96.467,163.652C95.864,163.652 95.358,163.565 94.949,163.389C94.543,163.213 94.224,162.949 93.99,162.598C93.76,162.243 93.639,161.844 93.627,161.398Z" style="fill:white;fill-rule:nonzero;"/>
            <path d="M99.403,163.539L101.962,156.876L102.912,156.876L105.639,163.539L104.634,163.539L103.857,161.521L101.071,161.521L100.339,163.539L99.403,163.539ZM101.326,160.803L103.584,160.803L102.889,158.958C102.677,158.397 102.519,157.937 102.416,157.576C102.331,158.003 102.212,158.427 102.057,158.849L101.326,160.803Z" style="fill:white;fill-rule:nonzero;"/>
            <path d="M106.307,163.539L106.307,156.876L107.188,156.876L107.188,162.753L110.47,162.753L110.47,163.539L106.307,163.539Z" style="fill:white;fill-rule:nonzero;"/>
            <path d="M115.891,156.876L116.773,156.876L116.773,160.726C116.773,161.395 116.697,161.927 116.546,162.321C116.394,162.715 116.12,163.036 115.723,163.284C115.329,163.53 114.811,163.652 114.169,163.652C113.545,163.652 113.034,163.545 112.637,163.33C112.24,163.115 111.957,162.804 111.788,162.398C111.618,161.989 111.533,161.432 111.533,160.726L111.533,156.876L112.415,156.876L112.415,160.721C112.415,161.3 112.468,161.727 112.574,162.003C112.683,162.275 112.868,162.486 113.128,162.634C113.392,162.783 113.713,162.857 114.092,162.857C114.74,162.857 115.202,162.71 115.478,162.416C115.754,162.122 115.891,161.557 115.891,160.721L115.891,156.876Z" style="fill:white;fill-rule:nonzero;"/>
            <path d="M118.241,163.539L118.241,156.876L120.536,156.876C121.054,156.876 121.45,156.908 121.722,156.972C122.104,157.059 122.43,157.219 122.699,157.449C123.051,157.746 123.313,158.126 123.486,158.59C123.661,159.05 123.749,159.577 123.749,160.171C123.749,160.677 123.69,161.125 123.572,161.516C123.454,161.907 123.302,162.231 123.118,162.489C122.933,162.743 122.73,162.945 122.509,163.093C122.29,163.239 122.025,163.349 121.713,163.425C121.404,163.501 121.048,163.539 120.645,163.539L118.241,163.539ZM119.123,162.753L120.545,162.753C120.985,162.753 121.328,162.712 121.577,162.63C121.828,162.548 122.028,162.433 122.177,162.284C122.386,162.075 122.548,161.795 122.663,161.444C122.781,161.089 122.84,160.66 122.84,160.157C122.84,159.461 122.725,158.926 122.495,158.553C122.268,158.177 121.99,157.926 121.663,157.799C121.427,157.708 121.047,157.662 120.523,157.662L119.123,157.662L119.123,162.753Z" style="fill:white;fill-rule:nonzero;"/>
            <path d="M124.231,163.539L126.79,156.876L127.74,156.876L130.466,163.539L129.462,163.539L128.685,161.521L125.899,161.521L125.167,163.539L124.231,163.539ZM126.153,160.803L128.412,160.803L127.717,158.958C127.505,158.397 127.347,157.937 127.244,157.576C127.159,158.003 127.04,158.427 126.885,158.849L126.153,160.803Z" style="fill:white;fill-rule:nonzero;"/>
            <path d="M131.134,163.539L131.134,156.876L133.634,156.876C134.143,156.876 134.551,156.944 134.857,157.081C135.166,157.214 135.407,157.422 135.579,157.703C135.755,157.982 135.843,158.274 135.843,158.58C135.843,158.865 135.766,159.133 135.611,159.385C135.457,159.636 135.223,159.839 134.911,159.994C135.314,160.112 135.623,160.313 135.838,160.598C136.056,160.883 136.166,161.219 136.166,161.607C136.166,161.919 136.099,162.21 135.966,162.48C135.835,162.746 135.673,162.952 135.479,163.098C135.285,163.243 135.041,163.354 134.748,163.43C134.457,163.502 134.099,163.539 133.675,163.539L131.134,163.539ZM132.016,159.676L133.457,159.676C133.848,159.676 134.128,159.65 134.298,159.598C134.522,159.532 134.69,159.421 134.802,159.267C134.917,159.112 134.975,158.918 134.975,158.685C134.975,158.464 134.922,158.27 134.816,158.103C134.71,157.934 134.558,157.818 134.361,157.758C134.164,157.694 133.826,157.662 133.348,157.662L132.016,157.662L132.016,159.676ZM132.016,162.753L133.675,162.753C133.96,162.753 134.16,162.742 134.275,162.721C134.478,162.684 134.648,162.624 134.784,162.539C134.92,162.454 135.032,162.331 135.12,162.171C135.208,162.007 135.252,161.819 135.252,161.607C135.252,161.359 135.188,161.144 135.061,160.962C134.934,160.777 134.757,160.648 134.529,160.576C134.305,160.5 133.981,160.462 133.557,160.462L132.016,160.462L132.016,162.753Z" style="fill:white;fill-rule:nonzero;"/>
            <path d="M137.343,163.539L137.343,156.876L138.224,156.876L138.224,162.753L141.506,162.753L141.506,163.539L137.343,163.539Z" style="fill:white;fill-rule:nonzero;"/>
            <path d="M142.574,163.539L142.574,156.876L147.391,156.876L147.391,157.662L143.455,157.662L143.455,159.703L147.141,159.703L147.141,160.485L143.455,160.485L143.455,162.753L147.546,162.753L147.546,163.539L142.574,163.539Z" style="fill:white;fill-rule:nonzero;"/>
        </g>
    </g>
</svg>
